<svg xmlns="http://www.w3.org/2000/svg" viewBox="0 0 129.13 201.13"><defs><style>.cls-1{opacity:0.8;}.cls-2{fill:#ccc;}.cls-3{fill:#e6e6e6;}.cls-4{fill:none;stroke:#ccc;stroke-miterlimit:10;stroke-width:0.25px;}.cls-5{font-size:10.74px;font-family:Lato-Regular, Lato;}.cls-5,.cls-6,.cls-7{fill:#303030;}.cls-6{font-size:57.29px;font-family:Lato-Light, Lato;font-weight:300;}</style></defs><title>bk12</title><g id="Layer_2" data-name="Layer 2"><g id="art"><g class="cls-1"><rect class="cls-2" width="128" height="200" rx="2"/></g><rect class="cls-3" x="1" y="1" width="128" height="200" rx="2"/><rect class="cls-4" x="1" y="1" width="128" height="200" rx="2"/><text class="cls-5" transform="translate(121.36 182.83) rotate(180) scale(0.96 1)">12</text><text class="cls-5" transform="translate(8.64 19.17) scale(0.96 1)">12</text><text class="cls-6" transform="translate(33 117.91) scale(0.96 1)">12</text><path class="cls-7" d="M18.07,32.65A2.32,2.32,0,1,1,15.75,35a2.32,2.32,0,0,1,2.32-2.32m0-.25A2.57,2.57,0,1,0,20.64,35a2.57,2.57,0,0,0-2.57-2.57Z"/><path class="cls-7" d="M11.21,32.65A2.32,2.32,0,1,1,8.89,35a2.32,2.32,0,0,1,2.32-2.32m0-.25A2.57,2.57,0,1,0,13.78,35a2.57,2.57,0,0,0-2.57-2.57Z"/><path class="cls-7" d="M14.64,26.71A2.32,2.32,0,1,1,12.32,29a2.32,2.32,0,0,1,2.32-2.32m0-.25A2.57,2.57,0,1,0,17.21,29a2.57,2.57,0,0,0-2.57-2.57Z"/><path class="cls-7" d="M111.93,164.79a2.32,2.32,0,1,1-2.32,2.32,2.32,2.32,0,0,1,2.32-2.32m0-.25a2.57,2.57,0,1,0,2.57,2.57,2.57,2.57,0,0,0-2.57-2.57Z"/><path class="cls-7" d="M118.79,164.79a2.32,2.32,0,1,1-2.32,2.32,2.32,2.32,0,0,1,2.32-2.32m0-.25a2.57,2.57,0,1,0,2.57,2.57,2.57,2.57,0,0,0-2.57-2.57Z"/><path class="cls-7" d="M115.36,170.73a2.32,2.32,0,1,1-2.32,2.32,2.32,2.32,0,0,1,2.32-2.32m0-.25a2.57,2.57,0,1,0,2.57,2.57,2.57,2.57,0,0,0-2.57-2.57Z"/></g></g></svg>