<svg xmlns="http://www.w3.org/2000/svg" viewBox="0 0 129.13 201.13"><defs><style>.cls-1{opacity:0.8;}.cls-2{fill:#ccc;}.cls-3{fill:#e6e6e6;}.cls-4{fill:none;stroke:#ccc;stroke-miterlimit:10;stroke-width:0.25px;}.cls-5,.cls-6,.cls-7{fill:#ebaf3c;}.cls-6{font-size:10.74px;font-family:Lato-Regular, Lato;}.cls-7{font-size:57.53px;font-family:Lato-Light, Lato;font-weight:300;}</style></defs><title>y9</title><g id="Layer_2" data-name="Layer 2"><g id="art"><g class="cls-1"><rect class="cls-2" width="128" height="200" rx="2"/></g><rect class="cls-3" x="1" y="1" width="128" height="200" rx="2"/><rect class="cls-4" x="1" y="1" width="128" height="200" rx="2"/><path class="cls-5" d="M14.64,26.71,19.93,32l-5.29,5.29L9.35,32l5.29-5.29m0-.71-6,6,6,6,6-6-6-6Z"/><text class="cls-6" transform="translate(11.52 19.17)">9</text><text class="cls-7" transform="translate(48.32 117.99)">9</text><path class="cls-5" d="M115.36,164.71l5.29,5.29-5.29,5.29L110.07,170l5.29-5.29m0-.71-6,6,6,6,6-6-6-6Z"/><text class="cls-6" transform="translate(118.48 182.83) rotate(180)">9</text></g></g></svg>