<svg xmlns="http://www.w3.org/2000/svg" viewBox="0 0 129.13 201.13"><defs><style>.cls-1{fill:#b3b3b3;}.cls-2{fill:#e6e6e6;}.cls-3{fill:#00ac65;}.cls-4{fill:none;stroke:#ccc;stroke-width:0.25px;}.cls-4,.cls-6{stroke-miterlimit:10;}.cls-5{fill:#fff;}.cls-6{fill:#333;stroke:#fff;}</style></defs><title>pirate-flag</title><g id="Layer_2" data-name="Layer 2"><g id="art"><rect class="cls-1" width="128" height="200" rx="2"/><rect class="cls-2" x="1" y="1" width="128" height="200" rx="2"/><rect class="cls-3" x="7" y="7" width="116" height="188" rx="2"/><rect class="cls-1" width="128" height="200" rx="2"/><rect class="cls-2" x="1" y="1" width="128" height="200" rx="2"/><rect class="cls-4" x="1" y="1" width="128" height="200" rx="2"/><rect class="cls-5" x="7" y="7" width="116" height="188" rx="2"/><path class="cls-6" d="M109.15,89.82a20.69,20.69,0,0,0-9.93-16.75c-7-4.09-15.9-2.58-22.17,2.6A34.17,34.17,0,0,0,58.34,59.12a32.78,32.78,0,0,0-19.17-.93,4.62,4.62,0,1,0,.35,2.3,20.25,20.25,0,0,1,8.06,4.65c3.72,3.44,5.51,6.55,7.4,11.94A20.56,20.56,0,0,0,30.34,76,21.51,21.51,0,0,0,21,93.49a4.63,4.63,0,1,0,2,.18,7.64,7.64,0,0,1,2.13-1.92C31.41,88,39.7,91.71,43,97a19.1,19.1,0,0,1,.79,3.51,1.84,1.84,0,0,0-1.54,1.81v4.11a1.86,1.86,0,0,0,.65,1.4A75,75,0,0,0,43,118.72c-.46,1.39-4.87,6.93-.26,12.92s10.6,1.85,11.52,2.31,1.38,1.38.92,3.23a7.47,7.47,0,0,0-1.84,3.22s-.92,2.77-.46,3.23,1.18,1,1.88.66a3.82,3.82,0,0,0,3.19,1.18,5.33,5.33,0,0,0,2.88.65s1.72,1.08,3.06.27c1.33.81,3-.27,3-.27a5.33,5.33,0,0,0,2.88-.65A3.82,3.82,0,0,0,73,144.29c.7.33,1.42-.2,1.88-.66s-.46-3.23-.46-3.23a7.47,7.47,0,0,0-1.84-3.22c-.46-1.85,0-2.77.92-3.23s6.92,3.69,11.53-2.31.19-11.53-.27-12.92a74.51,74.51,0,0,0,.06-10.82,1.85,1.85,0,0,0,.76-1.49V102.3a1.84,1.84,0,0,0-1.16-1.71,18.44,18.44,0,0,1,2.35-5.93,14.55,14.55,0,0,1,10.9-7,12.33,12.33,0,0,1,8.54,2.7,4.62,4.62,0,1,0,3-.55ZM59.36,126.4c-2.32,1.79-6,2.94-8.43,1s-3.42-6.88-2.06-8.59c2.06-2.59,6.67-.81,9.43,1S61.68,124.61,59.36,126.4Zm7.33,8.18c-1,2-2.85-1.38-2.85-1.38s-1.91,3.34-2.86,1.38,2.86-4.67,2.86-4.67S67.64,132.61,66.69,134.58Zm10-7.14c-2.38,1.9-6.1.75-8.43-1s-1.71-4.78,1.06-6.57,7.37-3.57,9.43-1C80.16,120.56,79.13,125.54,76.74,127.44Z"/></g></g></svg>